# xmcd CD database file
#
# Track frame offsets:
#	150
#	13240
#	28530
#	44132
#	59638
#	73045
#	85797
#	101067
#	116085
#	131302
#
# Disc length: 1965 seconds
#
# Revision: 0
# Processed by: cddbd v1.5.2PL0 Copyright (c) Steve Scherf et al.
# Submitted via: CDex 1.51
#
DISCID=8e07ab0a
DTITLE=Fredo - No Café
DYEAR=2007
DGENRE=Salsa
TTITLE0=Vár ránk Mexiko
TTITLE1=Ha felnézek az égre
TTITLE2=No Café
TTITLE3=Gondolj rám
TTITLE4=Holla Holla Hey
TTITLE5=Oly régóta
TTITLE6=Salsa a téma
TTITLE7=Várok még néha rád
TTITLE8=Drága kisfiam
TTITLE9=Keresztapa
EXTD=YEAR: 2007
EXTT0=
EXTT1=
EXTT2=
EXTT3=
EXTT4=
EXTT5=
EXTT6=
EXTT7=
EXTT8=
EXTT9=
PLAYORDER=
